<?xml version="1.0" encoding="UTF-8"?>
<!DOCTYPE svg PUBLIC "-//W3C//DTD SVG 1.1//EN" "http://www.w3.org/Graphics/SVG/1.1/DTD/svg11.dtd">
<!-- Creator: CorelDRAW -->
<svg xmlns="http://www.w3.org/2000/svg" xml:space="preserve" width="1.70666in" height="1.70666in" version="1.1" style="shape-rendering:geometricPrecision; text-rendering:geometricPrecision; image-rendering:optimizeQuality; fill-rule:evenodd; clip-rule:evenodd"
viewBox="0 0 1706.66 1706.66"
 xmlns:xlink="http://www.w3.org/1999/xlink"
 xmlns:xodm="http://www.corel.com/coreldraw/odm/2003">
 <defs>
  <style type="text/css">
   <![CDATA[
    .fil0 {fill:#00CCFF}
    .fil1 {fill:#96EAFF}
   ]]>
  </style>
 </defs>
 <g id="Layer_x0020_1">
  <metadata id="CorelCorpID_0Corel-Layer"/>
  <path class="fil0" d="M853.39 1153.12c-317.91,0 -576.52,-258.61 -576.52,-576.52 0,-317.92 258.61,-576.53 576.52,-576.53 317.92,0 576.53,258.61 576.53,576.53 0,317.77 -258.61,576.52 -576.53,576.52zm0 -1113.19c-295.83,0 -536.52,240.69 -536.52,536.53 0,295.83 240.69,536.66 536.52,536.66 295.83,0 536.53,-240.69 536.53,-536.52 0,-295.83 -240.69,-536.67 -536.53,-536.67z"/>
  <path class="fil0" d="M853.39 1013.12c-240.83,0 -436.66,-195.83 -436.66,-436.66 0,-240.83 195.83,-436.67 436.66,-436.67 240.83,0 436.67,195.83 436.67,436.67 0,240.83 -195.83,436.67 -436.67,436.67zm0 -833.33c-218.74,0 -396.66,177.92 -396.66,396.67 0,218.75 177.92,396.66 396.66,396.66 218.75,0 396.67,-177.91 396.67,-396.66 0,-218.75 -177.92,-396.67 -396.67,-396.67z"/>
  <path class="fil0" d="M1039.92 1706.59c-8.75,0 -16.18,-5.38 -18.89,-13.61l-186.52 -553.47c-8.37,-24.99 29.47,-37.56 37.78,-12.78l170.56 506.11 101.25 -217.22c4.58,-9.86 16.39,-14.31 26.39,-9.72l236.53 106.81 -219.58 -497.22c-10.58,-24.04 26.09,-40.16 36.67,-16.11l240.69 545.14c7.35,16.74 -9.83,33.82 -26.53,26.25l-266.11 -120.28 -114.03 244.58c-3.33,7.09 -10.41,11.53 -18.19,11.53z"/>
  <path class="fil0" d="M666.87 1706.59c-7.78,0 -14.86,-4.44 -18.06,-11.53l-114.17 -244.58 -266.25 120.14c-16.56,7.57 -33.94,-9.52 -26.53,-26.25l240.69 -545.14c10.53,-23.93 47.26,-7.98 36.67,16.11l-219.58 497.22 236.53 -106.81c10,-4.58 21.67,-0.14 26.39,9.72l101.25 217.22 170.56 -506.11c8.35,-24.93 46.27,-12.08 37.78,12.78l-186.52 553.47c-2.75,8.13 -10.66,13.75 -18.76,13.75z"/>
  <path class="fil0" d="M778.26 727.57c-5.14,0 -10.28,-1.94 -14.17,-5.83l-111.94 -111.94c-18.54,-18.54 9.53,-46.97 28.33,-28.33l97.78 97.78 248.05 -248.06c18.54,-18.54 46.97,9.53 28.33,28.33l-262.22 262.22c-3.89,3.89 -9.03,5.83 -14.17,5.83z"/>
  <path class="fil1" d="M1290.06 576.46c0,240.83 -195.83,436.67 -436.67,436.67 -240.83,0 -436.66,-195.83 -436.66,-436.66 0,-240.83 195.83,-436.67 436.66,-436.67 240.83,0 436.67,195.83 436.67,436.67zm-436.67 536.67c295.83,0 536.53,-240.69 536.53,-536.52 0,-295.83 -240.69,-536.67 -536.53,-536.67 -295.83,0 -536.52,240.69 -536.52,536.53 0,295.5 240.15,536.12 535.52,536.66 0.08,0 0.15,0 0.23,0 0.26,0 0.52,0 0.78,0z"/>
  <path class="fil1" d="M1197.69 1038.73c-89.25,66.67 -198.37,108.14 -316.73,113.74l161.88 480.37 101.25 -217.22c4.58,-9.86 16.39,-14.31 26.39,-9.72l236.53 106.81 -209.31 -473.97z"/>
  <path class="fil1" d="M663.82 1632.7l161.83 -480.23c-118.36,-5.63 -227.48,-47.12 -316.71,-113.81l-209.29 473.91 236.53 -106.81c10,-4.58 21.67,-0.14 26.39,9.72l101.25 217.22z"/>
 </g>
</svg>
